HIERARCHY
ROOT Hips
{
	OFFSET 0.000000 0.000000 0.000000
	CHANNELS 6 Xposition Yposition Zposition Xrotation Yrotation Zrotation
	JOINT Spine
	{
		OFFSET 0.000000 0.000000 0.102259
		CHANNELS 3 Xrotation Yrotation Zrotation
		JOINT Spine1
		{
			OFFSET 0.000000 -0.017757 0.100705
			CHANNELS 3 Xrotation Yrotation Zrotation
			JOINT Spine2
			{
				OFFSET 0.000000 -0.008912 0.101870
				CHANNELS 3 Xrotation Yrotation Zrotation
				JOINT Spine3
				{
					OFFSET 0.000000 0.000000 0.102259
					CHANNELS 3 Xrotation Yrotation Zrotation
					JOINT Neck
					{
						OFFSET 0.000000 0.013148 0.131476
						CHANNELS 3 Xrotation Yrotation Zrotation
						JOINT Neck1
						{
							OFFSET 0.000000 0.003817 0.043628
							CHANNELS 3 Xrotation Yrotation Zrotation
							JOINT Head
							{
								OFFSET 0.000000 0.007605 0.043130
								CHANNELS 3 Xrotation Yrotation Zrotation
								End Site
								{
									OFFSET 0.000000 0.000000 0.097916
								}
							}
						}
					}
					JOINT RightShoulder
					{
						OFFSET 0.000000 0.000000 0.092033
						CHANNELS 3 Xrotation Yrotation Zrotation
						JOINT RightArm
						{
							OFFSET 0.166682 0.000000 0.000000
							CHANNELS 3 Xrotation Yrotation Zrotation
							JOINT RightForeArm
							{
								OFFSET 0.339269 0.000000 0.000000
								CHANNELS 3 Xrotation Yrotation Zrotation
								JOINT RightHand
								{
									OFFSET 0.272813 0.000000 0.000000
									CHANNELS 3 Xrotation Yrotation Zrotation
									End Site
									{
										OFFSET 0.042337 0.031482 -0.014412
									}
									End Site
									{
										OFFSET 0.112899 -0.001086 0.000000
									}
								}
							}
						}
					}
					JOINT LeftShoulder
					{
						OFFSET 0.000000 0.000000 0.092033
						CHANNELS 3 Xrotation Yrotation Zrotation
						JOINT LeftArm
						{
							OFFSET -0.166682 0.000000 0.000000
							CHANNELS 3 Xrotation Yrotation Zrotation
							JOINT LeftForeArm
							{
								OFFSET -0.339269 0.000000 0.000000
								CHANNELS 3 Xrotation Yrotation Zrotation
								JOINT LeftHand
								{
									OFFSET -0.272813 0.000000 0.000000
									CHANNELS 3 Xrotation Yrotation Zrotation
									End Site
									{
										OFFSET -0.042337 0.031482 -0.014412
									}
									End Site
									{
										OFFSET -0.112899 -0.001086 0.000000
									}
								}
							}
						}
					}
				}
			}
		}
	}
	JOINT RightUpLeg
	{
		OFFSET 0.120852 0.000000 0.000000
		CHANNELS 3 Xrotation Yrotation Zrotation
		JOINT RightLeg
		{
			OFFSET 0.000000 0.000000 -0.533302
			CHANNELS 3 Xrotation Yrotation Zrotation
			JOINT RightFoot
			{
				OFFSET 0.000000 0.000000 -0.471812
				CHANNELS 3 Xrotation Yrotation Zrotation
				JOINT RightToeBase
				{
					OFFSET 0.000000 0.169608 -0.043308
					CHANNELS 3 Xrotation Yrotation Zrotation
					End Site
					{
						OFFSET 0.000000 0.063837 0.000000
					}
				}
			}
		}
	}
	JOINT LeftUpLeg
	{
		OFFSET -0.120852 0.000000 0.000000
		CHANNELS 3 Xrotation Yrotation Zrotation
		JOINT LeftLeg
		{
			OFFSET 0.000000 0.000000 -0.533302
			CHANNELS 3 Xrotation Yrotation Zrotation
			JOINT LeftFoot
			{
				OFFSET 0.000000 0.000000 -0.471812
				CHANNELS 3 Xrotation Yrotation Zrotation
				JOINT LeftToeBase
				{
					OFFSET 0.000000 0.169608 -0.043308
					CHANNELS 3 Xrotation Yrotation Zrotation
					End Site
					{
						OFFSET 0.000000 0.064424 0.000000
					}
				}
			}
		}
	}
}
MOTION
Frames: 13
Frame Time: 0.008333
-5.409119 1.085952 2.632516 -111.111200 -4.698573 16.292919 12.050823 -4.789707 -0.903857 12.068143 -4.850229 -0.482026 -11.859899 3.356074 -0.223784 -11.859899 3.356074 -0.223784 6.671007 13.495729 -17.034309 -7.891463 6.856952 -15.647558 -27.037740 1.923245 -14.658542 2.131049 11.662158 -10.430363 15.493391 56.055022 -4.812666 -11.531769 -17.726890 56.174264 -0.000024 4.696257 -8.574503 -2.284589 -9.935587 -13.018784 -26.568584 -53.062624 -32.095176 -4.887204 3.231878 -33.398444 -0.000011 -30.195655 -14.174815 29.426417 -7.613304 -15.956460 -4.131100 0.000000 0.000000 -6.102080 21.561266 -1.362024 11.916300 0.000000 0.000000 20.410669 -3.936183 -0.441842 -6.490900 0.000000 0.000000 1.639584 18.144053 20.042038 12.030100 0.000000 0.000000 
-5.408576 1.085883 2.632750 -111.141554 -4.691137 16.290002 11.926562 -4.786208 -0.902849 11.943941 -4.846630 -0.481221 -11.830430 3.366376 -0.217475 -11.830430 3.366376 -0.217475 6.688277 13.495870 -16.908743 -7.874104 6.842444 -15.520398 -27.029008 1.854433 -14.546286 2.124622 11.685827 -10.379246 14.704238 56.378528 -4.157461 -11.627997 -18.008438 56.351639 -0.000004 4.697659 -8.621180 -2.288682 -9.937330 -13.039612 -26.559808 -52.986095 -32.189247 -4.786871 3.193519 -33.633584 -0.000009 -30.163792 -14.167105 29.613437 -7.632923 -15.743164 -4.427600 0.000000 0.000000 -5.881290 21.557290 -1.565425 11.919500 0.000000 0.000000 20.486599 -3.927082 -0.445346 -6.551300 0.000000 0.000000 1.656874 18.134758 20.053212 12.013000 0.000000 0.000000 
-5.408088 1.085837 2.632913 -111.167129 -4.674116 16.290732 11.805751 -4.783813 -0.899835 11.823092 -4.844032 -0.478509 -11.818810 3.379778 -0.208463 -11.818810 3.379778 -0.208463 6.707396 13.488969 -16.786590 -7.853443 6.824947 -15.397383 -27.014949 1.789195 -14.437492 2.113957 11.707279 -10.309946 14.018103 56.699564 -3.573013 -11.733815 -18.304390 56.521521 -0.000045 4.688419 -8.704350 -2.298916 -9.954386 -13.074069 -26.503466 -52.914125 -32.267193 -4.633818 3.120911 -33.889498 -0.000006 -30.165170 -14.050725 29.793434 -7.663434 -15.562065 -4.734800 0.000000 0.000000 -5.662388 21.546531 -1.734329 11.908900 0.000000 0.000000 20.534360 -3.931541 -0.515413 -6.572100 0.000000 0.000000 1.627555 18.122441 20.138047 12.030300 0.000000 0.000000 
-5.407580 1.085794 2.633078 -111.174633 -4.645483 16.275385 11.664208 -4.784229 -0.887091 11.681574 -4.843341 -0.465763 -11.800133 3.395582 -0.188531 -11.800133 3.395582 -0.188531 6.728893 13.492642 -16.667786 -7.829016 6.813207 -15.276784 -26.994345 1.723293 -14.330220 2.105001 11.725491 -10.251887 13.331996 57.023452 -2.973956 -11.805625 -18.545021 56.688206 0.000014 4.619363 -8.812251 -2.310100 -9.972016 -13.113434 -26.487241 -52.807289 -32.387554 -4.598356 3.125829 -34.136268 0.000060 -30.084305 -14.041317 29.956085 -7.687163 -15.338184 -5.034700 0.000000 0.000000 -5.445581 21.539704 -1.920464 11.927400 0.000000 0.000000 20.563915 -3.932428 -0.536363 -6.606600 0.000000 0.000000 1.621446 18.106853 20.188806 12.031800 0.000000 0.000000 
-5.406978 1.085759 2.633344 -111.193111 -4.623218 16.262997 11.516190 -4.780742 -0.877152 11.533514 -4.838947 -0.456226 -11.773474 3.408185 -0.172004 -11.773474 3.408185 -0.172004 6.745075 13.480842 -16.544684 -7.811540 6.798298 -15.154076 -26.984104 1.670829 -14.218672 2.096321 11.742765 -10.195750 12.762789 57.397308 -2.435143 -11.969919 -18.886051 56.776086 0.000044 4.450138 -8.952912 -2.320321 -9.978340 -13.161787 -26.409822 -52.736359 -32.460696 -4.592261 3.149866 -34.375770 0.000042 -30.031756 -14.072478 30.148917 -7.706353 -15.109169 -5.362500 0.000000 0.000000 -5.212122 21.518187 -2.129699 11.925200 0.000000 0.000000 20.634147 -3.925544 -0.512001 -6.686700 0.000000 0.000000 1.650563 18.087881 20.183139 12.024800 0.000000 0.000000 
-5.406483 1.085710 2.633616 -111.218256 -4.613636 16.269642 11.373590 -4.752453 -0.871496 11.390712 -4.810350 -0.452996 -11.756087 3.399586 -0.163788 -11.756087 3.399586 -0.163788 6.769530 13.464355 -16.421270 -7.792147 6.783455 -15.030675 -26.980659 1.624140 -14.104884 2.071365 11.696504 -10.115331 12.905018 57.986890 -2.463604 -12.312919 -19.412480 56.706331 -0.000032 4.388855 -8.947151 -2.332630 -9.995633 -13.207162 -26.271365 -52.653258 -32.485603 -4.525944 3.136212 -34.650436 0.000029 -30.109284 -14.058103 30.336560 -7.732033 -14.945304 -5.669200 0.000000 0.000000 -5.007844 21.489056 -2.285335 11.930800 0.000000 0.000000 20.722007 -3.920858 -0.488343 -6.782900 0.000000 0.000000 1.702964 18.064025 20.158469 12.008500 0.000000 0.000000 
-5.405959 1.085639 2.633873 -111.224245 -4.593741 16.277284 11.216975 -4.729568 -0.861333 11.233970 -4.786656 -0.444952 -11.738760 3.404389 -0.148863 -11.738760 3.404389 -0.148863 6.780497 13.434030 -16.294337 -7.775638 6.756977 -14.906514 -26.966544 1.569813 -13.993559 2.049732 11.673521 -10.030758 12.947933 58.492833 -2.403665 -12.474204 -19.703157 56.728728 -0.000026 4.255183 -9.048250 -2.350030 -10.018164 -13.274107 -26.160066 -52.573303 -32.553669 -4.348788 3.044509 -34.930777 -0.000029 -30.116921 -13.970315 30.499213 -7.756726 -14.761796 -5.968100 0.000000 0.000000 -4.796286 21.461583 -2.461572 11.932800 0.000000 0.000000 20.796085 -3.917680 -0.449551 -6.890400 0.000000 0.000000 1.752429 18.036047 20.126967 12.026500 0.000000 0.000000 
-5.405444 1.085543 2.634165 -111.221669 -4.569988 16.284399 11.045023 -4.695578 -0.855973 11.061737 -4.752259 -0.442521 -11.723287 3.393390 -0.140446 -11.723287 3.393390 -0.140446 6.799994 13.399405 -16.163648 -7.757280 6.731719 -14.778279 -26.959800 1.522649 -13.876298 2.034451 11.714541 -9.924134 12.822630 58.895984 -2.172303 -12.519990 -19.846243 56.811818 -0.000003 4.028198 -9.242131 -2.360143 -10.024095 -13.321340 -26.059659 -52.484610 -32.632314 -4.305734 3.048307 -35.233480 -0.000025 -30.015347 -13.958139 30.667346 -7.784767 -14.586469 -6.296000 0.000000 0.000000 -4.574408 21.444059 -2.635455 11.932200 0.000000 0.000000 20.872876 -3.917396 -0.418979 -7.024600 0.000000 0.000000 1.816893 18.019685 20.104061 12.026200 0.000000 0.000000 
-5.404887 1.085436 2.634462 -111.216421 -4.553653 16.301117 10.867245 -4.656091 -0.849403 10.883694 -4.712362 -0.439486 -11.705261 3.383591 -0.131129 -11.705261 3.383591 -0.131129 6.822090 13.352967 -16.031689 -7.740731 6.705137 -14.650022 -26.961618 1.488173 -13.756331 2.014888 11.735805 -9.813312 12.685073 59.311378 -1.906516 -12.464194 -19.810295 56.887137 -0.000023 3.687491 -9.479606 -2.371113 -10.021080 -13.385185 -25.989764 -52.384557 -32.749972 -4.271979 3.055364 -35.509616 -0.000008 -29.914077 -14.010017 30.819750 -7.806573 -14.408076 -6.594000 0.000000 0.000000 -4.360755 21.427857 -2.815342 11.940200 0.000000 0.000000 20.963002 -3.911308 -0.394318 -7.182900 0.000000 0.000000 1.889364 18.008510 20.077969 12.045800 0.000000 0.000000 
-5.404324 1.085317 2.634782 -111.194403 -4.535118 16.317227 10.675178 -4.610905 -0.841122 10.691297 -4.666666 -0.435143 -11.686759 3.380293 -0.119408 -11.686759 3.380293 -0.119408 6.828319 13.279838 -15.890592 -7.727645 6.663605 -14.517201 -26.951432 1.454645 -13.633278 1.991169 11.739525 -9.696711 12.593221 59.730105 -1.646158 -12.448408 -19.811381 56.922803 -0.000020 3.301106 -9.812042 -2.385641 -10.022046 -13.462758 -25.826130 -52.333442 -32.816469 -4.188132 3.025920 -35.786933 0.000021 -29.924160 -14.002396 30.964835 -7.825023 -14.215614 -6.908700 0.000000 0.000000 -4.135615 21.417930 -3.013694 11.956200 0.000000 0.000000 21.050766 -3.902222 -0.363443 -7.373800 0.000000 0.000000 1.986922 18.005400 20.037812 12.034900 0.000000 0.000000 
-5.403757 1.085187 2.635201 -111.173510 -4.514061 16.337066 10.462163 -4.563819 -0.833643 10.477918 -4.619069 -0.431903 -11.657411 3.376194 -0.108488 -11.657411 3.376194 -0.108488 6.842801 13.212575 -15.753299 -7.706226 6.621046 -14.386599 -26.932337 1.411327 -13.514277 1.965376 11.762046 -9.555794 12.267911 60.055263 -1.166610 -12.269496 -19.579882 57.018324 -0.000039 2.822445 -10.289317 -2.400465 -10.029494 -13.534049 -25.627157 -52.294127 -32.856544 -4.094151 2.992836 -36.108002 0.000034 -29.921831 -13.959043 31.121040 -7.846935 -13.996288 -7.235300 0.000000 0.000000 -3.899407 21.407540 -3.239731 11.966600 0.000000 0.000000 21.159012 -3.898430 -0.343996 -7.593300 0.000000 0.000000 2.087821 17.996928 20.011203 12.032700 0.000000 0.000000 
-5.403178 1.085042 2.635618 -111.147317 -4.501076 16.372066 10.240104 -4.508728 -0.830570 10.255600 -4.563870 -0.433575 -11.625853 3.366295 -0.102978 -11.625853 3.366295 -0.102978 6.862603 13.156522 -15.619730 -7.683789 6.577881 -14.257220 -26.916760 1.351879 -13.400399 1.934779 11.789601 -9.388008 12.006214 60.372184 -0.714872 -12.081136 -19.314856 57.092743 0.000026 2.387372 -10.766456 -2.407521 -10.015056 -13.591001 -25.442316 -52.281010 -32.932982 -4.104691 3.032765 -36.399294 0.000014 -29.844223 -13.988041 31.269493 -7.865933 -13.783008 -7.558300 0.000000 0.000000 -3.654325 21.388124 -3.472403 11.950500 0.000000 0.000000 21.292519 -3.887743 -0.310915 -7.865800 0.000000 0.000000 2.219579 17.979738 19.955638 12.048200 0.000000 0.000000 
-5.402645 1.084892 2.636029 -111.120440 -4.495875 16.408769 10.025480 -4.435442 -0.825171 10.040363 -4.490471 -0.434735 -11.607298 3.350395 -0.097567 -11.607298 3.350395 -0.097567 6.857286 13.078851 -15.476623 -7.667144 6.524371 -14.123449 -26.882190 1.297256 -13.282467 1.906626 11.829301 -9.223812 11.407341 60.585182 0.069635 -11.781320 -18.883095 57.199997 -0.000029 1.835019 -11.319982 -2.419591 -10.012333 -13.660368 -25.263537 -52.242750 -33.025780 -4.234660 3.161638 -36.681381 -0.000010 -29.743083 -14.087357 31.418495 -7.879769 -13.590953 -7.879700 0.000000 0.000000 -3.419367 21.361038 -3.698920 11.947600 0.000000 0.000000 21.431990 -3.876041 -0.316724 -8.155900 0.000000 0.000000 2.352234 17.958785 19.938785 12.040700 0.000000 0.000000 
